<svg viewBox="0 0 86 90" fill="none" xmlns="http://www.w3.org/2000/svg">
<path d="M83 32.5V30H80.5V27.5H78H75.5V30H73H70.5V32.5H68V35H65.5V37.5H68V40V45V52.5V55H65.5V60H63V62.5H60.5V65H58V67.5H55.5V70H50.5H45.5V72.5H40.5V70H33V67.5H30.5H28V65H25.5V62.5H23V57.5H20.5V50H18V40H20.5V35V32.5H23V30H25.5V27.5H28V25H33H35.5V22.5H43V30H45.5H48V27.5H53V25H58V22.5H60.5V20H65.5V17.5H68V15V12.5H65.5V10H60.5V7.5H55.5V5H53V2.5H48V0H45.5H43V5H35.5H33V7.5H25.5V10H20.5V12.5H18V15H15.5V17.5H13V20H10.5V22.5H8V25H5.5V27.5V30H3V37.5H0.5V50H3V60H5.5V67.5H8V70H10.5V75H13V77.5H15.5V80H18V82.5H20.5V85H25.5V87.5H30.5H38V90H43H45.5V87.5H58V85H63V82.5H68V80H70.5V77.5H73V75H75.5V72.5H78V67.5H80.5V62.5H83V55H85.5V35H83V32.5Z" fill="white"/>
</svg>
