<?xml version="1.0" standalone="no"?>
<!DOCTYPE svg PUBLIC "-//W3C//DTD SVG 20010904//EN"
 "http://www.w3.org/TR/2001/REC-SVG-20010904/DTD/svg10.dtd">
<svg version="1.0" xmlns="http://www.w3.org/2000/svg"
 width="1156.000000pt" height="1156.000000pt" viewBox="0 0 1156.000000 1156.000000"
 preserveAspectRatio="xMidYMid meet">
<metadata>
Created by potrace 1.14, written by Peter Selinger 2001-2017
</metadata>
<g transform="translate(0.000000,1156.000000) scale(0.100000,-0.100000)"
fill="#000000" stroke="none">
<path d="M860 5780 l0 -5780 4920 0 4920 0 0 5780 0 5780 -4920 0 -4920 0 0
-5780z m3920 2880 l0 -940 -960 0 -960 0 0 940 0 940 960 0 960 0 0 -940z
m1960 5 l0 -935 -960 0 -960 0 0 935 0 935 960 0 960 0 0 -935z m1960 -5 l0
-940 -960 0 -960 0 0 940 0 940 960 0 960 0 0 -940z m-1960 -1920 l0 -940
-960 0 -960 0 0 940 0 940 960 0 960 0 0 -940z m-2 -1922 l2 -938 -960 0 -960
0 0 933 c0 514 3 937 7 940 3 4 434 6 957 5 l951 -3 3 -937z m2 -1918 l0 -940
-960 0 -960 0 0 940 0 940 960 0 960 0 0 -940z"/>
</g>
</svg>
